Coordinates
version=1
nRows=8
nColumns=42
inDegrees=yes

Units are S.I. units (second, meters, Newtons, ...)
If the header above contains a line with 'inDegrees', this indicates whether rotational values are in degrees (yes) or radians (no).

endheader
time	pelvis_tilt	pelvis_list	pelvis_rotation	pelvis_tx	pelvis_ty	pelvis_tz	hip_flexion_r	hip_adduction_r	hip_rotation_r	knee_angle_r	knee_adduction_r	knee_angle_r_beta	ankle_angle_r	subtalar_angle_r	mtp_angle_r	hip_flexion_l	hip_adduction_l	hip_rotation_l	knee_angle_l	knee_adduction_l	knee_angle_l_beta	ankle_angle_l	subtalar_angle_l	mtp_angle_l	lumbar_extension	lumbar_bending	lumbar_rotation	arm_flex_r	arm_add_r	arm_rot_r	elbow_flex_r	pro_sup_r	wrist_flex_r	wrist_dev_r	arm_flex_l	arm_add_l	arm_rot_l	elbow_flex_l	pro_sup_l	wrist_flex_l	wrist_dev_l
      0.81000000	      7.91747585	     -1.90389357	     -0.37107830	     -0.21556930	      0.86438639	     -0.29643590	    -28.94386738	      6.06892893	      0.91197093	      9.46870920	     -3.69203631	      0.16526015	     20.45505308	     14.48363364	     -7.60099929	     16.64344083	     -4.44940487	    -21.25800624	     10.68057774	      4.43177252	      0.18641125	      9.29538729	     13.13813245	     -7.60099929	    -18.74132460	     -1.35827517	      4.02824442	     -1.62334249	     -2.92653461	    -15.16802158	     58.36738182	     90.00000001	      0.00000000	      0.00000000	     -5.16227315	     -5.09053425	    -21.90742184	     35.75551221	     90.00000001	      0.00000000	      0.00000000
      0.82000000	      7.56851861	     -1.73782943	     -0.38174958	     -0.20332954	      0.86255894	     -0.29676185	    -29.02955784	      5.75611333	      0.13094221	     10.32651380	     -3.56107234	      0.18023167	     20.44290370	     14.57029489	     -7.59869318	     17.13421371	     -3.93815089	    -21.03813198	     11.07001509	      4.14152111	      0.19320821	      9.29987299	     13.32586088	     -7.59869318	    -18.21635606	     -1.53337632	      4.00337812	     -1.62528511	     -2.89021403	    -15.17332316	     58.00140195	     90.00000001	      0.00000000	      0.00000000	     -5.26482538	     -5.16075488	    -22.19627128	     35.13397953	     90.00000001	      0.00000000	      0.00000000
      0.83000000	      7.35485854	     -1.28063081	     -0.53632119	     -0.19065762	      0.86083921	     -0.29722255	    -29.08555203	      4.94887787	     -1.59767667	     11.49972772	     -3.41235756	      0.20070811	     20.83058379	     16.66564092	     -7.58968407	     17.39663593	     -3.07835434	    -20.78114513	     11.69357118	      3.67292337	      0.20409132	      9.22304216	     13.25996306	     -7.58968407	    -17.81105850	     -2.04359563	      4.02991708	     -1.77814099	     -2.86045116	    -15.18886950	     57.81323231	     90.00000001	      0.00000000	      0.00000000	     -5.46104029	     -5.13467446	    -23.05553227	     34.86880301	     90.00000001	      0.00000000	      0.00000000
      0.84000000	      7.00274580	     -1.00999028	     -0.61618631	     -0.17804720	      0.85912904	     -0.29753597	    -29.21618388	      4.50219520	     -2.00301983	     12.29159856	     -3.33377287	      0.21452887	     20.58906338	     16.59833170	     -7.58818493	     17.93772659	     -2.44528282	    -20.20374815	     12.83090567	      3.12629912	      0.22394155	      9.11261427	     12.72048652	     -7.58818493	    -17.28267133	     -2.36306800	      4.07268361	     -1.93257448	     -2.81789084	    -15.24394820	     57.52216955	     90.00000001	      0.00000000	      0.00000000	     -5.70406658	     -5.24460534	    -23.12017468	     34.60764651	     90.00000001	      0.00000000	      0.00000000
      0.85000000	      6.67076013	     -0.59670454	     -0.69641703	     -0.16530716	      0.85754866	     -0.29792820	    -29.29883574	      3.87439243	     -2.60499961	     13.21127642	     -3.22037049	      0.23058027	     20.33092402	     16.64844828	     -7.58669953	     18.47731271	     -1.66738813	    -19.61316952	     14.21933898	      2.48753423	      0.24817428	      8.88889830	     11.98884780	     -7.58669953	    -16.76767169	     -2.83193611	      4.09700819	     -2.10431992	     -2.76431486	    -15.35217794	     57.20190983	     90.00000001	      0.00000000	      0.00000000	     -5.91063309	     -5.35720223	    -23.28721452	     34.39076447	     90.00000001	      0.00000000	      0.00000000
      0.86000000	      6.51145261	      0.39495925	     -0.90095055	     -0.15221231	      0.85627850	     -0.29872459	    -29.27468985	      2.36061608	     -4.61357887	     14.71276500	     -2.96059277	      0.25678619	     20.56449125	     18.57335476	     -7.58108316	     18.65922185	     -0.16352448	    -18.87403239	     15.40644189	      1.74055434	      0.26889314	      8.27614780	     10.27630960	     -7.58108316	    -16.41789033	     -3.91675086	      4.06634300	     -2.30928701	     -2.61883082	    -15.61359289	     56.84152408	     90.00000001	      0.00000000	      0.00000000	     -6.10719042	     -5.37562007	    -24.05109109	     34.30087546	     90.00000001	      0.00000000	      0.00000000
      0.87000000	      6.25923965	      0.87859261	     -0.89112179	     -0.13935079	      0.85519834	     -0.29921526	    -29.33569668	      1.68743414	     -5.23069544	     15.81176879	     -2.88003017	      0.27596743	     19.85502805	     18.43931297	     -7.57967443	     19.23608851	      0.65134166	    -18.15617661	     17.32930283	      1.00987941	      0.30245339	      8.03006006	      9.38784247	     -7.57967443	    -16.02982264	     -4.45905895	      4.01618364	     -2.52422122	     -2.55160849	    -15.67433742	     56.41340710	     90.00000001	      0.00000000	      0.00000000	     -6.24554271	     -5.51706165	    -24.08189793	     34.05138952	     90.00000001	      0.00000000	      0.00000000
      0.88000000	      6.20559300	      1.96689821	     -1.02140569	     -0.12630661	      0.85455083	     -0.30009143	    -29.28421595	      0.09898665	     -7.08073855	     17.55881070	     -2.72362220	      0.30645906	     19.62386047	     19.98369583	     -7.57415677	     19.38227553	      2.19129989	    -17.00673954	     18.89756390	      0.43549120	      0.32982471	      7.36670342	      6.76414473	     -7.57415677	    -15.86357450	     -5.65171385	      3.92409810	     -2.72863421	     -2.40681093	    -15.96186416	     55.97543996	     90.00000001	      0.00000000	      0.00000000	     -6.42000889	     -5.59027578	    -24.49450693	     34.06281783	     90.00000001	      0.00000000	      0.00000000
